<svg width="416" height="197" viewBox="0 0 416 197" fill="none" xmlns="http://www.w3.org/2000/svg">
<path d="M369.386 63C378.105 53.2443 391.805 57.3354 403.949 49.1533C424.188 35.6212 415.47 40.3417 403.015 34.3624C399.901 32.7889 398.344 30.9007 397.41 27.7537C393.674 16.1099 383.71 10.76 374.68 4.78072C372.5 3.20723 369.386 0.37494 366.895 3.20723C364.405 5.72482 366.273 8.87181 367.207 11.7041C369.698 18.9422 371.877 26.1802 374.991 33.1036C379.039 42.5446 376.548 47.2651 366.273 47.5798C362.536 47.5798 356.932 47.2651 358.177 53.559C358.8 58.9089 362.848 62.3706 369.386 63Z" fill="#515060"/>
<path d="M305.262 126.592C317.964 125.631 334.478 120.824 342.099 117.94C344.005 117.299 345.91 117.299 347.816 117.62C348.768 117.62 350.991 118.581 350.991 116.658C351.309 113.774 348.133 111.531 351.309 109.609C355.755 106.724 359.566 105.763 358.93 104.802C358.295 103.84 353.214 101.277 336.383 104.802C329.714 106.404 329.397 108.006 319.552 93.5861C308.437 77.2431 305.262 75 305.262 75C305.262 75 292.877 79.1658 299.863 94.5474C301.769 99.0337 303.991 102.879 308.12 105.763C309.708 107.045 311.296 108.327 311.931 109.929C313.518 114.095 308.755 117.299 305.579 118.581C303.991 119.222 302.086 119.863 300.816 119.863C297.64 120.504 286.843 121.465 289.383 126.913C290.336 128.835 292.242 127.874 305.262 126.592Z" fill="#515060"/>
<path d="M3.59218 168.473C6.81026 168.158 9.70653 167.842 12.6028 167.526C14.5337 167.21 16.1427 168.789 16.1427 170.368C16.4645 176.684 18.3953 183.315 21.6134 188.683C23.8661 192.472 27.0842 195.946 31.2677 196.893C33.1985 197.209 35.773 196.893 36.7384 194.999C37.0602 194.051 37.0602 192.788 37.0602 191.841C36.7384 186.788 37.0602 181.736 38.0256 176.999C38.9911 172.894 40.9219 168.789 44.7836 167.21C46.0708 166.579 47.6799 166.579 49.2889 166.263C50.5761 165.947 52.1852 165 52.8288 163.737C53.4724 162.474 52.1852 160.579 50.898 160.579H52.1852C42.531 159.632 32.5549 159 22.9007 159C15.8209 159 8.4193 159.316 1.98314 162.474C-1.55675 164.052 0.0522921 168.789 3.59218 168.473Z" fill="#515060"/>
<path d="M54.7289 180.783C50.8976 184.25 46.1084 186.456 41 187.401C46.4277 188.977 52.494 187.086 58.241 185.826C70.0542 183.304 81.8675 182.989 94 183.304C92.7229 180.468 89.5301 178.578 86.3373 178.262C85.0602 178.262 83.7831 177.317 83.7831 175.741C83.4639 167.548 82.506 159.67 80.9096 151.791C80.5904 149.901 78.0361 148.955 76.4398 150.216C75.4819 151.161 74.5241 152.737 73.8855 154.312C72.9277 156.203 71.6506 158.409 69.7349 159.355C68.4578 159.985 67.1807 159.67 66.5422 158.409C64.6265 155.573 62.7108 152.737 61.1145 149.585C60.1566 147.695 57.6024 147.38 56.6446 149.27C55.3675 151.476 54.4096 154.312 54.0904 156.833C53.7711 160.93 54.4096 165.342 55.3675 169.439C56.006 173.22 56.9639 177.632 54.7289 180.783Z" fill="#515060"/>
<path d="M131.3 144.914C130.989 141.488 131.921 137.128 135.336 136.817C136.267 136.817 136.888 137.128 137.82 137.128C144.961 138.685 152.102 134.325 158.311 130.276C164.521 126.227 171.351 121.867 178.802 123.113C179.423 122.179 178.492 120.621 177.25 120.31C176.008 119.998 174.766 120.31 173.524 120.621C168.557 121.556 163.9 118.441 159.863 115.638C158.311 114.704 157.069 113.769 156.138 112.212C154.585 109.098 156.138 104.114 153.033 102.246C152.102 101.623 150.86 101.623 149.928 101.623C140.925 101.311 131.921 101 122.917 101C123.538 105.36 130.679 105.36 132.542 109.409C133.473 111.901 132.542 114.704 133.473 116.884C134.715 119.687 137.509 122.49 135.336 124.047C134.715 124.359 134.094 124.67 132.852 124.982C130.058 125.604 126.643 124.047 124.469 122.801C123.228 122.179 121.365 119.998 120.433 119.687C119.191 119.376 117.95 120.31 117.329 121.556C114.224 126.227 114.224 132.768 117.329 137.44C120.123 142.734 125.711 145.537 131.3 144.914Z" fill="#515060"/>
<path d="M225.011 135.815C230.912 144.964 245.819 161.685 257 162C256.068 162 252.031 152.536 251.41 151.274C249.236 146.857 247.062 142.125 245.819 137.393C244.888 133.607 239.918 124.458 241.782 120.988C243.024 118.78 253.584 119.726 252.963 117.202C252.652 116.256 252.031 115.625 250.167 114.994C246.44 114.048 242.092 114.048 238.676 111.839C232.465 108.054 231.533 108.054 220.973 111.839C210.414 115.625 205.134 117.518 198.612 116.256C192.09 114.994 190.226 126.667 198.612 132.345C206.998 138.024 213.209 136.762 213.209 136.762C213.209 136.762 210.103 130.768 213.209 128.875C216.315 126.982 219.11 126.667 225.011 135.815Z" fill="#515060"/>
<path d="M196.223 57.464C212.154 62.8919 221.075 68.0005 218.845 62.8919C216.614 57.7833 213.109 55.5483 221.712 55.5483C230.315 55.5483 232.864 52.994 234.138 52.0362C235.413 51.0783 246.564 59.3798 239.236 44.6926C239.236 44.6926 259.628 43.0962 266 28.0898C266 24.5776 266 24.5776 266 24.5776C260.584 26.8126 255.167 29.0476 250.069 31.2826C245.608 33.1983 241.466 34.7948 237.324 36.7105C232.864 38.6262 227.447 42.4576 222.349 40.2226C216.933 37.9876 213.428 30.9633 209.605 26.8126C205.781 22.6619 198.772 16.2762 198.772 9.89046C198.772 1.90832 196.541 -1.92311 194.311 0.950459C192.081 4.14332 193.037 22.6619 200.365 32.879C207.693 43.4155 210.561 47.8855 206.419 48.8433C202.276 49.4819 186.027 43.7348 185.39 46.9276C183.797 50.1205 180.611 52.0362 196.223 57.464Z" fill="#515060"/>
</svg>
