<svg width="14" height="14" viewBox="0 0 14 14" fill="none" xmlns="http://www.w3.org/2000/svg">
<path opacity="0.6" fill-rule="evenodd" clip-rule="evenodd" d="M9.88825 0.454544H4.07766C2.09523 0.454544 0.45459 2.09518 0.45459 4.07762V9.92238C0.45459 11.9048 2.09523 13.5455 4.07766 13.5455H9.88825C11.8707 13.5455 13.5113 11.9048 13.5455 9.92238V4.1118C13.5455 2.09518 11.9049 0.454544 9.88825 0.454544ZM6.98295 10.0933C5.27396 10.0933 3.90676 8.72608 3.90676 7.01709C3.90676 5.30809 5.27396 3.97508 6.94877 3.97508C8.62359 3.97508 9.99079 5.34227 9.99079 7.01709C9.99079 8.69191 8.65777 10.0933 6.98295 10.0933ZM11.7681 3.66746C11.4947 4.1118 10.9136 4.2827 10.5035 4.00926C10.0591 3.73582 9.88825 3.15476 10.1617 2.7446C10.4351 2.30026 11.0162 2.12936 11.4263 2.4028C11.8707 2.64206 12.0074 3.22312 11.7681 3.66746Z" fill="#555465"/>
</svg>
