<svg width="14" height="17" viewBox="0 0 14 17" fill="none" xmlns="http://www.w3.org/2000/svg">
<path fill-rule="evenodd" clip-rule="evenodd" d="M0.284528 17H13.7155C13.7928 17 13.8673 16.9704 13.9213 16.9182C13.9753 16.8659 14.0031 16.7957 13.9997 16.7234L13.3602 4.25129C13.3528 4.11034 13.2277 4 13.0759 4H0.924096C0.771737 4 0.647234 4.11034 0.639844 4.25129L0.000275159 16.7234C-0.00313587 16.7957 0.0252894 16.8659 0.0787289 16.9182C0.132168 16.9704 0.206643 17 0.284528 17ZM13.417 16.4721H0.582425L1.19471 4.52792H12.8047L13.417 16.4721Z" fill="#515060"/>
<path d="M10.7036 6C10.5401 6 10.4073 5.88185 10.4073 5.73626V3.11473C10.4073 1.68844 9.1033 0.527473 7.5 0.527473C5.8967 0.527473 4.59272 1.68844 4.59272 3.11473V5.73626C4.59272 5.88185 4.45995 6 4.29636 6C4.13277 6 4 5.88185 4 5.73626V3.11473C4 1.39727 5.57011 0 7.5 0C9.42989 0 11 1.39727 11 3.11473V5.73626C11 5.88185 10.8678 6 10.7036 6Z" fill="#515060"/>
</svg>
