<svg width="95" height="20" viewBox="0 0 95 20" fill="none" xmlns="http://www.w3.org/2000/svg">
<path d="M22.123 3.368C22.123 4.648 21.2057 6.02933 19.371 7.512C18.1017 8.52533 16.251 9.672 13.819 10.952C14.363 11.2613 15.0884 11.6933 15.995 12.248C16.9017 12.8027 18.0217 13.48 19.355 14.28C19.675 14.504 20.315 14.8027 21.275 15.176C21.275 15.3147 21.2644 15.3893 21.243 15.4C21.2324 15.4 21.1044 15.4107 20.859 15.432C19.8884 15.432 17.147 14.0933 12.635 11.416C12.4217 11.5333 12.1284 11.6667 11.755 11.816C11.3924 11.9653 10.9337 12.136 10.379 12.328C9.73902 12.5413 9.15769 12.712 8.63502 12.84C8.11236 12.9573 7.62702 13.0427 7.17902 13.096C6.73102 13.6933 6.26169 14.2853 5.77102 14.872C5.28036 15.4587 4.74702 16.072 4.17102 16.712C2.48569 18.5787 1.32836 19.5227 0.699022 19.544C0.528356 19.544 0.443022 19.4 0.443022 19.112C0.443022 19.0053 0.507022 18.8933 0.635022 18.776C0.773689 18.6693 0.885689 18.6107 0.971022 18.6C1.04569 18.6 1.13102 18.6213 1.22702 18.664C1.26969 18.6853 1.30702 18.696 1.33902 18.696C1.37102 18.696 1.39769 18.696 1.41902 18.696C3.14702 17.3733 4.89636 15.5227 6.66702 13.144C5.64302 13.144 4.67236 12.8133 3.75502 12.152C2.88036 11.5227 2.43769 10.8027 2.42702 9.992C2.42702 9.20267 2.76302 8.52 3.43502 7.944C3.77636 7.656 4.14969 7.44267 4.55502 7.304C4.96036 7.16533 5.40302 7.09067 5.88302 7.08C7.15236 7.08 8.56569 7.54933 10.123 8.488C13.6004 3.79467 16.7417 1.432 19.547 1.4C19.9204 1.4 20.251 1.45333 20.539 1.56C20.8377 1.656 21.1204 1.79467 21.387 1.976C21.867 2.34933 22.1124 2.81333 22.123 3.368ZM21.275 3.72C21.275 3.28267 21.0244 2.91467 20.523 2.616C20.0217 2.328 19.483 2.184 18.907 2.184C17.499 2.184 16.0537 2.824 14.571 4.104C13.739 4.82933 12.3684 6.36 10.459 8.696C10.651 8.888 11.691 9.56533 13.579 10.728C14.6244 10.184 15.5684 9.64533 16.411 9.112C17.2537 8.57867 18.011 8.03467 18.683 7.48C20.411 6.072 21.275 4.81867 21.275 3.72ZM9.91502 9.528L7.69102 12.456C8.89636 12.4027 10.4484 11.976 12.347 11.176L9.91502 9.528ZM9.51502 9.272C9.09902 8.92 8.58702 8.58933 7.97902 8.28C7.13636 7.84267 6.36302 7.624 5.65902 7.624C4.86969 7.624 4.19236 7.82667 3.62702 8.232C3.07236 8.62667 2.79502 9.112 2.79502 9.688C2.79502 10.4773 3.32836 11.16 4.39502 11.736C4.87502 11.992 5.34436 12.1787 5.80302 12.296C6.27236 12.4027 6.74169 12.456 7.21102 12.456L9.51502 9.272ZM27.8691 10.376C27.8691 10.44 27.8425 10.4987 27.7891 10.552C25.4638 12.5147 23.8318 13.496 22.8931 13.496C22.3918 13.496 22.0931 13.08 21.9971 12.248C21.7198 12.5573 21.3091 12.84 20.7651 13.096C20.3491 13.2773 20.0451 13.3733 19.8531 13.384C19.6825 13.384 19.5278 13.3093 19.3891 13.16C19.2398 13.032 19.1598 12.8667 19.1491 12.664C19.1491 12.3013 19.3091 11.944 19.6291 11.592C19.7891 11.4427 20.0238 11.256 20.3331 11.032C20.6425 10.7973 21.0371 10.5253 21.5171 10.216C21.6131 10.216 21.6451 10.2907 21.6131 10.44C21.4745 10.5253 21.3358 10.6213 21.1971 10.728C21.0585 10.824 20.9145 10.9253 20.7651 11.032C20.2531 11.48 19.9918 11.8853 19.9811 12.248C19.9811 12.5787 20.0771 12.76 20.2691 12.792C20.3758 12.792 20.5838 12.7173 20.8931 12.568C21.0851 12.4827 21.2558 12.3973 21.4051 12.312C21.5545 12.216 21.6878 12.1253 21.8051 12.04C22.0291 11.88 22.3811 11.48 22.8611 10.84C23.2451 10.3493 23.5225 10.104 23.6931 10.104C23.8211 10.104 23.8905 10.1627 23.9011 10.28C23.9011 10.3333 23.8531 10.4187 23.7571 10.536C23.6611 10.6533 23.5065 10.8133 23.2931 11.016C22.9091 11.3787 22.7171 11.688 22.7171 11.944C22.7171 12.1893 22.7918 12.4027 22.9411 12.584C23.0585 12.7653 23.2025 12.8667 23.3731 12.888C23.8318 12.888 24.5678 12.5467 25.5811 11.864C25.7305 11.7573 25.9758 11.576 26.3171 11.32C26.6585 11.064 27.1171 10.7227 27.6931 10.296C27.7251 10.2853 27.7571 10.28 27.7891 10.28C27.8318 10.28 27.8585 10.312 27.8691 10.376ZM35.8769 6.872C35.8769 7.08533 35.6636 7.208 35.2369 7.24H34.4529H31.0929C29.6529 8.776 28.8742 9.60267 28.7569 9.72C27.6796 10.9573 27.1409 11.8373 27.1409 12.36C27.1409 12.7013 27.3702 12.872 27.8289 12.872C28.4156 12.872 29.2156 12.5307 30.2289 11.848C30.5702 11.6027 30.9062 11.3573 31.2369 11.112C31.5782 10.856 31.9249 10.5893 32.2769 10.312C32.2876 10.2907 32.3196 10.28 32.3729 10.28C32.4049 10.28 32.4262 10.3173 32.4369 10.392C32.4369 10.456 32.4156 10.5147 32.3729 10.568C31.8182 11.016 31.3489 11.3947 30.9649 11.704C30.5916 12.0027 30.2876 12.232 30.0529 12.392C28.9969 13.1173 28.1116 13.4853 27.3969 13.496C27.1409 13.496 26.9329 13.4 26.7729 13.208C26.6022 13.0053 26.5169 12.7653 26.5169 12.488C26.5169 11.848 27.0556 10.92 28.1329 9.704C28.5276 9.29867 28.9169 8.89333 29.3009 8.488C29.6849 8.08267 30.0742 7.66667 30.4689 7.24L24.6929 7.112C24.5542 7.112 24.5009 7.016 24.5329 6.824C24.5436 6.74933 24.6556 6.70133 24.8689 6.68H31.0289L32.4689 5.272C32.5116 5.25067 32.5596 5.22933 32.6129 5.208C32.6769 5.18667 32.7622 5.17067 32.8689 5.16C32.9222 5.16 32.9756 5.19733 33.0289 5.272C33.0609 5.336 33.0609 5.39467 33.0289 5.448L31.6209 6.68L35.8769 6.872ZM41.463 2.456C41.463 2.89333 40.9617 3.704 39.959 4.888C39.0417 5.95467 38.1244 6.888 37.207 7.688C36.3004 8.488 35.3777 9.16533 34.439 9.72C34.279 9.82667 34.119 9.928 33.959 10.024C33.799 10.12 33.6337 10.216 33.463 10.312C33.143 10.5147 32.6737 10.744 32.055 11L31.143 12.344C31.2284 12.2907 31.495 12.12 31.943 11.832C32.4017 11.5333 33.047 11.1067 33.879 10.552C34.4657 10.168 34.8657 9.97067 35.079 9.96C35.2284 9.96 35.303 10.04 35.303 10.2C35.303 10.2213 35.2657 10.2907 35.191 10.408C35.127 10.5147 35.015 10.6747 34.855 10.888C34.5777 11.2827 34.439 11.6133 34.439 11.88C34.439 11.976 34.439 12.0613 34.439 12.136C34.4497 12.2107 34.471 12.2747 34.503 12.328C34.5457 12.392 34.615 12.4347 34.711 12.456C34.807 12.4773 34.9297 12.4987 35.079 12.52C35.3564 12.52 36.103 12.0827 37.319 11.208C38.1404 10.6 38.551 10.296 38.551 10.296C38.5937 10.296 38.6257 10.344 38.647 10.44C38.647 10.472 38.5244 10.5947 38.279 10.808C37.895 11.1067 37.6497 11.32 37.543 11.448C37.3724 11.5973 37.1857 11.7467 36.983 11.896C36.791 12.0453 36.5777 12.2 36.343 12.36C35.6177 12.776 35.0417 12.9893 34.615 13C33.9964 13 33.671 12.7227 33.639 12.168C33.639 12.072 33.6497 11.944 33.671 11.784C33.6924 11.6133 33.7244 11.4053 33.767 11.16C33.735 11.16 33.687 11.1653 33.623 11.176C33.559 11.1867 33.4844 11.2187 33.399 11.272C33.367 11.2933 33.1964 11.416 32.887 11.64C32.5884 11.8533 32.1564 12.1733 31.591 12.6C31.2817 12.824 31.031 12.9947 30.839 13.112C30.6364 13.2293 30.4817 13.2933 30.375 13.304C30.311 13.304 30.263 13.2453 30.231 13.128C30.231 13.032 30.2844 12.8987 30.391 12.728C30.487 12.5467 30.631 12.312 30.823 12.024C31.1644 11.544 31.4417 11.16 31.655 10.872C31.8684 10.584 32.007 10.3867 32.071 10.28C32.5617 9.50133 33.159 8.67467 33.863 7.8C34.5777 6.92533 35.4044 5.98667 36.343 4.984C38.3484 2.808 39.7137 1.704 40.439 1.672C40.695 1.672 40.9297 1.752 41.143 1.912C41.3564 2.06133 41.463 2.24267 41.463 2.456ZM40.727 2.632C40.727 2.32267 40.551 2.168 40.199 2.168C39.751 2.168 39.095 2.568 38.231 3.368C37.975 3.624 37.6444 3.976 37.239 4.424C36.8444 4.872 36.3697 5.416 35.815 6.056C35.2604 6.728 34.791 7.29333 34.407 7.752C34.023 8.2 33.7244 8.55733 33.511 8.824C33.1697 9.272 32.9084 9.63467 32.727 9.912C32.5457 10.1787 32.4337 10.3813 32.391 10.52C32.8604 10.4453 33.7884 9.896 35.175 8.872C35.879 8.33867 36.535 7.80533 37.143 7.272C37.7617 6.73867 38.343 6.18933 38.887 5.624C40.0924 4.33333 40.7057 3.336 40.727 2.632ZM57.079 7.544C57.079 7.608 56.9564 7.752 56.711 7.976C56.3804 8.24267 56.1244 8.49333 55.943 8.728C55.8577 8.84533 55.7457 9.032 55.607 9.288C55.4684 9.544 55.3084 9.87467 55.127 10.28C54.9137 10.7493 54.711 11.1653 54.519 11.528C54.327 11.8907 54.151 12.2107 53.991 12.488C54.2044 12.3707 54.4177 12.2853 54.631 12.232C54.8444 12.168 55.0524 12.1307 55.255 12.12C55.3724 12.12 55.431 12.168 55.431 12.264C55.431 12.2853 55.287 12.3333 54.999 12.408C54.7964 12.44 54.599 12.4933 54.407 12.568C54.215 12.632 54.023 12.728 53.831 12.856C53.1057 13.8587 52.4924 14.68 51.991 15.32C51.5004 15.96 51.1057 16.4453 50.807 16.776C49.3884 18.3547 48.1724 19.16 47.159 19.192C47.0204 19.192 46.8497 19.1333 46.647 19.016C46.423 18.8667 46.295 18.6427 46.263 18.344C46.263 17.6507 46.9884 16.76 48.439 15.672C49.655 14.776 51.2177 13.8427 53.127 12.872C53.3297 12.5307 53.5644 12.1093 53.831 11.608C54.1084 11.096 54.4177 10.504 54.759 9.832C51.7724 12.104 48.7217 13.256 45.607 13.288C45.0524 13.288 44.551 13.2027 44.103 13.032C43.6657 12.8613 43.2657 12.6053 42.903 12.264C42.231 11.624 41.879 10.7707 41.847 9.704C41.847 8.31733 42.4924 6.89867 43.783 5.448C44.391 4.75467 45.0737 4.13067 45.831 3.576C46.5884 3.01067 47.4364 2.49867 48.375 2.04C50.2417 1.10133 52.0177 0.631999 53.703 0.631999C54.5777 0.631999 55.303 0.834666 55.879 1.24C56.4444 1.624 56.7324 2.14133 56.743 2.792C56.743 3.86933 56.0284 4.94667 54.599 6.024C53.1804 7.112 51.751 7.66133 50.311 7.672C49.6924 7.672 49.383 7.41067 49.383 6.888C49.383 6.824 49.3937 6.76 49.415 6.696C49.4364 6.62133 49.479 6.552 49.543 6.488C49.6177 6.41333 49.6817 6.36 49.735 6.328C49.799 6.28533 49.8737 6.264 49.959 6.264C50.2044 6.264 50.3377 6.30133 50.359 6.376C50.359 6.48267 50.343 6.55733 50.311 6.6C50.3004 6.632 50.295 6.65867 50.295 6.68C50.295 6.70133 50.2897 6.728 50.279 6.76C50.279 6.984 50.5297 7.10667 51.031 7.128C52.0764 7.128 53.159 6.70133 54.279 5.848C54.8657 5.4 55.303 4.952 55.591 4.504C55.8897 4.056 56.039 3.58133 56.039 3.08C56.039 2.51467 55.7777 2.06133 55.255 1.72C54.7324 1.4 54.023 1.23467 53.127 1.224C51.4737 1.224 49.831 1.63467 48.199 2.456C46.6097 3.24533 45.2924 4.264 44.247 5.512C43.7137 6.16267 43.3084 6.81333 43.031 7.464C42.7644 8.104 42.631 8.74933 42.631 9.4C42.631 10.328 43.0097 11.144 43.767 11.848C44.535 12.5093 45.5004 12.8453 46.663 12.856C47.911 12.856 49.3937 12.4507 51.111 11.64C52.6257 10.9573 53.751 10.2533 54.487 9.528C54.7217 9.28267 54.9564 9.04267 55.191 8.808C55.4257 8.57333 55.6604 8.33333 55.895 8.088C56.3217 7.68267 56.6684 7.45333 56.935 7.4C56.999 7.4 57.047 7.448 57.079 7.544ZM52.999 13.256C52.1457 13.672 51.3724 14.0827 50.679 14.488C49.9964 14.904 49.3777 15.3307 48.823 15.768C47.607 16.7067 46.9937 17.48 46.983 18.088C46.983 18.216 47.0577 18.328 47.207 18.424C47.2817 18.4773 47.3617 18.5147 47.447 18.536C47.5324 18.568 47.6337 18.584 47.751 18.584C48.5084 18.584 49.5484 17.7947 50.871 16.216C51.735 15.1707 52.4444 14.184 52.999 13.256ZM59.3139 9.176C59.3139 9.47467 59.1006 9.624 58.6739 9.624C58.2579 9.624 58.0499 9.47467 58.0499 9.176C58.0499 8.86667 58.2579 8.712 58.6739 8.712C59.1006 8.712 59.3139 8.86667 59.3139 9.176ZM61.9219 10.376C61.9219 10.44 61.8952 10.4933 61.8419 10.536C61.2659 11.0373 60.8019 11.432 60.4499 11.72C60.0979 12.008 59.8419 12.2053 59.6819 12.312C58.7432 13.0053 58.0286 13.352 57.5379 13.352C57.2392 13.352 56.9566 13.2613 56.6899 13.08C56.4446 12.9093 56.3112 12.696 56.2899 12.44C56.2899 12.0453 56.4979 11.5813 56.9139 11.048C57.2872 10.5573 57.6179 10.28 57.9059 10.216C58.0446 10.216 58.1139 10.264 58.1139 10.36C58.1139 10.4453 57.9432 10.68 57.6019 11.064C57.3032 11.448 57.1432 11.8107 57.1219 12.152C57.1219 12.5787 57.3192 12.7973 57.7139 12.808C58.1619 12.808 59.5059 11.976 61.7459 10.312C61.7672 10.2907 61.7992 10.28 61.8419 10.28C61.8739 10.28 61.9006 10.312 61.9219 10.376ZM72.1478 3.416C72.1478 4.25867 70.7771 5.928 68.0358 8.424C67.5558 8.82933 66.9584 9.31467 66.2438 9.88C65.5398 10.4453 64.6971 11.096 63.7158 11.832C63.8438 12.6533 64.2598 13.0747 64.9638 13.096C65.4224 13.096 66.0838 12.8507 66.9478 12.36C67.5131 12.04 68.1744 11.5867 68.9318 11C69.5398 10.52 69.8598 10.28 69.8918 10.28C69.9558 10.28 69.9878 10.3227 69.9878 10.408C69.9878 10.4827 69.5504 10.8773 68.6758 11.592C68.2704 11.912 67.9184 12.1787 67.6198 12.392C67.3211 12.6053 67.0704 12.776 66.8678 12.904C66.1104 13.3413 65.4171 13.5707 64.7878 13.592C64.0304 13.592 63.5291 13.1067 63.2838 12.136C63.0491 12.264 62.8144 12.392 62.5798 12.52C62.3451 12.648 62.1051 12.7813 61.8598 12.92C61.6038 13.0373 61.3478 13.1227 61.0918 13.176C60.8358 13.24 60.5851 13.2827 60.3398 13.304C60.1051 13.304 59.8971 13.2293 59.7158 13.08C59.5451 12.9413 59.4598 12.7547 59.4598 12.52C59.4598 12.136 59.7584 11.6933 60.3558 11.192C61.2091 10.4987 62.0304 10.136 62.8198 10.104C62.9798 10.104 63.1344 10.1627 63.2838 10.28C63.4011 10.344 63.4598 10.4507 63.4598 10.6C63.4598 10.8667 63.3691 11.016 63.1878 11.048C63.1558 11.048 63.1131 11.0053 63.0598 10.92C63.0491 10.8667 63.0384 10.8187 63.0278 10.776C63.0171 10.7333 63.0011 10.6853 62.9798 10.632C62.9478 10.536 62.7558 10.488 62.4038 10.488C61.9558 10.488 61.3798 10.84 60.6758 11.544C60.5264 11.6933 60.4198 11.8373 60.3558 11.976C60.2811 12.104 60.2384 12.232 60.2278 12.36C60.2278 12.616 60.3984 12.7493 60.7398 12.76C60.8571 12.76 61.0171 12.7333 61.2198 12.68C61.4224 12.616 61.6624 12.52 61.9398 12.392C62.1851 12.2853 62.4144 12.1787 62.6278 12.072C62.8518 11.9547 63.0651 11.8267 63.2678 11.688C63.3531 11.3467 63.4598 11.0213 63.5878 10.712C63.7158 10.4027 63.8651 10.0933 64.0358 9.784C64.0571 9.752 64.1264 9.64 64.2438 9.448C64.3718 9.24533 64.5584 8.96267 64.8038 8.6C65.2624 7.896 65.7478 7.22933 66.2598 6.6C66.7824 5.96 67.3584 5.34133 67.9878 4.744C69.4278 3.35733 70.5798 2.65333 71.4438 2.632C71.9024 2.632 72.1371 2.89333 72.1478 3.416ZM71.4918 3.416C71.4918 3.14933 71.3478 3.00533 71.0598 2.984C70.5798 2.984 69.7958 3.47467 68.7078 4.456C68.1638 4.936 67.6411 5.45867 67.1398 6.024C66.6491 6.57867 66.1744 7.18133 65.7158 7.832C64.6918 9.18667 64.0411 10.3707 63.7638 11.384C64.5424 10.808 65.2784 10.248 65.9718 9.704C66.6758 9.14933 67.3478 8.59467 67.9878 8.04C68.8944 7.26133 69.6891 6.42933 70.3718 5.544C71.0971 4.60533 71.4704 3.896 71.4918 3.416ZM80.2259 3.416C80.2259 4.25867 78.8552 5.928 76.1139 8.424C75.6339 8.82933 75.0366 9.31467 74.3219 9.88C73.6179 10.4453 72.7752 11.096 71.7939 11.832C71.9219 12.6533 72.3379 13.0747 73.0419 13.096C73.5006 13.096 74.1619 12.8507 75.0259 12.36C75.5912 12.04 76.2526 11.5867 77.0099 11C77.6179 10.52 77.9379 10.28 77.9699 10.28C78.0339 10.28 78.0659 10.3227 78.0659 10.408C78.0659 10.4827 77.6286 10.8773 76.7539 11.592C76.3486 11.912 75.9966 12.1787 75.6979 12.392C75.3992 12.6053 75.1486 12.776 74.9459 12.904C74.1886 13.3413 73.4952 13.5707 72.8659 13.592C72.1086 13.592 71.6072 13.1067 71.3619 12.136C71.1272 12.264 70.8926 12.392 70.6579 12.52C70.4232 12.648 70.1832 12.7813 69.9379 12.92C69.6819 13.0373 69.4259 13.1227 69.1699 13.176C68.9139 13.24 68.6632 13.2827 68.4179 13.304C68.1832 13.304 67.9752 13.2293 67.7939 13.08C67.6232 12.9413 67.5379 12.7547 67.5379 12.52C67.5379 12.136 67.8366 11.6933 68.4339 11.192C69.2872 10.4987 70.1086 10.136 70.8979 10.104C71.0579 10.104 71.2126 10.1627 71.3619 10.28C71.4792 10.344 71.5379 10.4507 71.5379 10.6C71.5379 10.8667 71.4472 11.016 71.2659 11.048C71.2339 11.048 71.1912 11.0053 71.1379 10.92C71.1272 10.8667 71.1166 10.8187 71.1059 10.776C71.0952 10.7333 71.0792 10.6853 71.0579 10.632C71.0259 10.536 70.8339 10.488 70.4819 10.488C70.0339 10.488 69.4579 10.84 68.7539 11.544C68.6046 11.6933 68.4979 11.8373 68.4339 11.976C68.3592 12.104 68.3166 12.232 68.3059 12.36C68.3059 12.616 68.4766 12.7493 68.8179 12.76C68.9352 12.76 69.0952 12.7333 69.2979 12.68C69.5006 12.616 69.7406 12.52 70.0179 12.392C70.2632 12.2853 70.4926 12.1787 70.7059 12.072C70.9299 11.9547 71.1432 11.8267 71.3459 11.688C71.4312 11.3467 71.5379 11.0213 71.6659 10.712C71.7939 10.4027 71.9432 10.0933 72.1139 9.784C72.1352 9.752 72.2046 9.64 72.3219 9.448C72.4499 9.24533 72.6366 8.96267 72.8819 8.6C73.3406 7.896 73.8259 7.22933 74.3379 6.6C74.8606 5.96 75.4366 5.34133 76.0659 4.744C77.5059 3.35733 78.6579 2.65333 79.5219 2.632C79.9806 2.632 80.2152 2.89333 80.2259 3.416ZM79.5699 3.416C79.5699 3.14933 79.4259 3.00533 79.1379 2.984C78.6579 2.984 77.8739 3.47467 76.7859 4.456C76.2419 4.936 75.7192 5.45867 75.2179 6.024C74.7272 6.57867 74.2526 7.18133 73.7939 7.832C72.7699 9.18667 72.1192 10.3707 71.8419 11.384C72.6206 10.808 73.3566 10.248 74.0499 9.704C74.7539 9.14933 75.4259 8.59467 76.0659 8.04C76.9726 7.26133 77.7672 6.42933 78.4499 5.544C79.1752 4.60533 79.5486 3.896 79.5699 3.416ZM81.68 10.376C81.68 10.44 81.6587 10.4987 81.616 10.552C81.0614 11.0213 80.592 11.4053 80.208 11.704C79.824 12.0027 79.52 12.2267 79.296 12.376C78.2294 13.0907 77.264 13.4587 76.4 13.48C75.664 13.48 75.2907 13.1013 75.28 12.344C75.28 11.8747 75.552 11.3253 76.096 10.696C76.672 10.0987 77.1627 9.79467 77.568 9.784C77.7067 9.784 77.8294 9.83733 77.936 9.944C78.032 10.0293 78.0907 10.136 78.112 10.264C78.112 10.456 78.016 10.648 77.824 10.84C77.7174 10.9253 77.616 11.0107 77.52 11.096C77.424 11.1707 77.3227 11.2507 77.216 11.336C76.896 11.6133 76.4854 11.8747 75.984 12.12C75.9734 12.376 76.08 12.5893 76.304 12.76C76.4854 12.8773 76.6827 12.936 76.896 12.936C77.4507 12.936 78.2774 12.5787 79.376 11.864C79.4827 11.7893 79.712 11.624 80.064 11.368C80.416 11.112 80.896 10.7547 81.504 10.296C81.536 10.2853 81.5734 10.28 81.616 10.28C81.648 10.28 81.6694 10.312 81.68 10.376ZM77.408 10.44C77.408 10.3867 77.3387 10.344 77.2 10.312C77.0187 10.312 76.7787 10.4773 76.48 10.808C76.1814 11.1067 76.032 11.3733 76.032 11.608C76.0854 11.608 76.1814 11.5813 76.32 11.528C77.0134 11.1227 77.376 10.76 77.408 10.44ZM89.1614 10.376C89.1614 10.44 89.1401 10.4987 89.0974 10.552C88.0627 11.4053 87.3374 11.9707 86.9214 12.248C85.9507 12.9093 85.1134 13.24 84.4094 13.24C83.8121 13.24 83.5081 12.92 83.4974 12.28C83.4974 12.1627 83.5081 12.0187 83.5294 11.848C83.5614 11.6667 83.6094 11.4533 83.6734 11.208C83.2681 11.4427 82.8521 11.688 82.4254 11.944C82.0094 12.1893 81.5774 12.4613 81.1294 12.76C80.5001 13.176 80.1587 13.384 80.1054 13.384C80.0947 13.384 80.0521 13.3627 79.9774 13.32C79.9134 13.288 79.8814 13.2507 79.8814 13.208C79.8814 13.1333 79.9294 13.0107 80.0254 12.84C80.1107 12.6693 80.2601 12.4347 80.4734 12.136C80.6974 11.8053 80.8734 11.544 81.0014 11.352C81.1401 11.1493 81.2361 11.0053 81.2894 10.92C81.2467 10.856 81.2254 10.7653 81.2254 10.648C81.2254 10.5627 81.2947 10.472 81.4334 10.376C81.5827 10.2907 81.7001 10.2427 81.7854 10.232C82.1267 10.232 82.3081 10.3707 82.3294 10.648C82.3294 10.7227 82.1587 10.9947 81.8174 11.464C81.6574 11.6667 81.5187 11.8373 81.4014 11.976C81.2947 12.1147 81.1987 12.2267 81.1134 12.312C83.1401 10.9253 84.4467 10.232 85.0334 10.232C85.0867 10.232 85.1294 10.3013 85.1614 10.44C85.1614 10.4613 84.9961 10.6587 84.6654 11.032C84.3561 11.416 84.1961 11.7787 84.1854 12.12C84.1854 12.504 84.4574 12.7013 85.0014 12.712C85.4067 12.712 86.0841 12.392 87.0334 11.752C87.2147 11.6453 87.8654 11.1653 88.9854 10.312C89.0174 10.3013 89.0547 10.296 89.0974 10.296C89.1294 10.296 89.1507 10.3227 89.1614 10.376ZM94.0538 10.376C94.0538 10.44 94.0324 10.4987 93.9898 10.552C92.7524 11.5653 91.9951 12.1627 91.7178 12.344C90.6191 13.048 89.4244 13.4107 88.1338 13.432C87.7391 13.432 87.4244 13.352 87.1898 13.192C87.1044 13.1493 86.9124 12.9787 86.6138 12.68C86.6138 12.6053 86.6244 12.5467 86.6458 12.504C86.4644 12.6107 86.2938 12.7067 86.1338 12.792C85.9631 12.8773 85.7978 12.952 85.6378 13.016C85.4564 13.016 85.3604 12.9893 85.3498 12.936C85.3498 12.904 85.3658 12.8667 85.3978 12.824C85.4191 12.7813 85.4564 12.7227 85.5098 12.648C86.0111 12.4027 86.5284 12.1093 87.0618 11.768C87.5844 11.416 88.1284 11.016 88.6938 10.568C88.6938 10.5573 88.6991 10.5413 88.7098 10.52C89.0084 10.2853 89.3284 10.1573 89.6698 10.136C90.2031 10.136 90.4698 10.376 90.4698 10.856C90.4698 11.176 90.3044 11.5547 89.9738 11.992C89.6858 12.3867 89.3978 12.6693 89.1098 12.84C89.7711 12.84 90.6404 12.4987 91.7178 11.816C91.9631 11.6773 92.2618 11.4853 92.6138 11.24C92.9658 10.984 93.3871 10.6693 93.8778 10.296C93.9098 10.2853 93.9471 10.28 93.9898 10.28C94.0218 10.28 94.0431 10.312 94.0538 10.376ZM89.7018 11.064C89.7018 10.7973 89.5631 10.664 89.2858 10.664C89.2218 10.664 89.1631 10.664 89.1098 10.664C89.0564 10.664 89.0138 10.6747 88.9818 10.696C88.5764 11.0373 88.2031 11.3467 87.8618 11.624C87.5098 11.8907 87.1844 12.1307 86.8858 12.344C86.9391 12.344 86.9871 12.3547 87.0298 12.376C87.3924 12.6 87.7018 12.7227 87.9578 12.744C88.1818 12.744 88.4004 12.696 88.6138 12.6C88.8271 12.4933 89.0244 12.328 89.2058 12.104C89.3658 11.9227 89.4831 11.752 89.5578 11.592C89.6324 11.4213 89.6804 11.2453 89.7018 11.064Z" fill="#555465"/>
</svg>
