<svg width="20" height="10" viewBox="0 0 20 10" fill="none" xmlns="http://www.w3.org/2000/svg">
<path d="M14.077 0C13.8366 0 13.6229 0.196186 13.6496 0.441418C13.6496 0.564034 13.7031 0.662127 13.8099 0.735697L18.3768 4.58584H0.482993H0.429579C0.189214 4.58584 -0.0244435 4.80655 0.00226366 5.02726C0.00226366 5.24797 0.242629 5.44416 0.482993 5.41963H18.3501L13.7832 9.26978C13.5962 9.41692 13.5695 9.68667 13.7565 9.85834C13.9167 10.03 14.2105 10.0545 14.3974 9.88286L19.8457 5.29702C20.0327 5.14988 20.0594 4.88012 19.8724 4.70846L19.8457 4.68394L14.3974 0.0980929C14.3173 0.0245232 14.1838 0 14.077 0Z" fill="#555465"/>
</svg>
